<svg width="293" height="48" viewBox="0 0 293 48" fill="none" xmlns="http://www.w3.org/2000/svg">
<g filter="url(#filter0_d_1012_477)">
<rect x="4" y="2" width="285" height="40" rx="4" fill="white"/>
<rect x="4.5" y="2.5" width="284" height="39" rx="3.5" stroke="#F5F5F5"/>
</g>
<path fill-rule="evenodd" clip-rule="evenodd" d="M101.64 23.2042C101.64 22.566 101.583 21.9524 101.476 21.3633H93V24.8446H97.8436C97.635 25.9696 97.0009 26.9228 96.0477 27.561V29.8192H98.9564C100.658 28.2524 101.64 25.9451 101.64 23.2042Z" fill="#4285F4"/>
<path fill-rule="evenodd" clip-rule="evenodd" d="M92.9998 32.0009C95.4298 32.0009 97.467 31.195 98.9561 29.8205L96.0475 27.5623C95.2416 28.1023 94.2107 28.4214 92.9998 28.4214C90.6557 28.4214 88.6716 26.8382 87.9638 24.7109H84.957V27.0428C86.4379 29.9841 89.4816 32.0009 92.9998 32.0009Z" fill="#34A853"/>
<path fill-rule="evenodd" clip-rule="evenodd" d="M87.9641 24.7108C87.7841 24.1708 87.6818 23.594 87.6818 23.0008C87.6818 22.4076 87.7841 21.8308 87.9641 21.2908V18.959H84.9573C84.3477 20.174 84 21.5485 84 23.0008C84 24.4531 84.3477 25.8276 84.9573 27.0426L87.9641 24.7108Z" fill="#FBBC05"/>
<path fill-rule="evenodd" clip-rule="evenodd" d="M92.9998 17.5795C94.3211 17.5795 95.5075 18.0336 96.4402 18.9255L99.0216 16.3441C97.4629 14.8918 95.4257 14 92.9998 14C89.4816 14 86.4379 16.0168 84.957 18.9582L87.9638 21.29C88.6716 19.1627 90.6557 17.5795 92.9998 17.5795Z" fill="#EA4335"/>
<path d="M123.431 22.61H121.667C121.989 20.818 121.989 19.502 121.989 18.312V17.206H113.365V18.368H120.575C120.575 19.53 120.575 20.846 120.211 22.61H111.993V23.8H116.935V29.078H118.391V23.8H123.431V22.61ZM127.658 26.628H134.91V23.268H126.188V24.416H133.468V25.55H126.216V28.952H135.232V27.818H127.658V26.628ZM134.63 21.028C134.896 19.684 134.896 18.62 134.896 17.794V16.954H126.314V18.116H133.482C133.482 18.9 133.44 19.824 133.188 21.028H124.872V22.19H136.324V21.028H134.63ZM141.386 17.402V18.578H145.796C145.544 20.58 143.752 22.218 140.854 23.1L141.456 24.248C145.138 23.128 147.364 20.748 147.364 17.402H141.386ZM144.2 24.668H142.744V28.84H151.256V27.664H144.2V24.668ZM150.752 20.132V16.436H149.31V25.592H150.752V21.322H152.558V20.132H150.752ZM162.805 25.802H164.247V16.436H162.805V18.76H160.943V19.922H162.805V21.224H160.943V22.386H162.805V25.802ZM156.645 18.578H158.255V22.792C157.709 22.82 157.177 22.834 156.645 22.848V18.578ZM161.069 22.568C160.621 22.624 160.131 22.666 159.641 22.694V18.578H160.775V17.402H154.111V18.578H155.259V22.876C154.741 22.876 154.237 22.876 153.775 22.876L153.943 24.066C155.973 24.066 158.773 24.024 161.153 23.632L161.069 22.568ZM157.485 27.664V25.06H156.043V28.84H164.569V27.664H157.485ZM176.224 26.404V24.248H180.172V23.086H172.598V21.322H179.892V17.318H171.156V18.48H178.464V20.174H171.184V24.248H174.782V26.404H169.798V27.594H181.25V26.404H176.224ZM191.203 19.054C191.203 20.692 191.203 22.554 190.713 25.046L192.169 25.2C192.645 22.526 192.645 20.748 192.645 19.054V17.696H183.895V18.858H191.203V19.054ZM182.677 26.124V27.314H194.115V26.124H182.677ZM205.972 16.436H204.53V25.62H205.972V16.436ZM197.208 20.44C197.208 19.278 198.034 18.522 199.154 18.522C200.26 18.522 201.1 19.278 201.1 20.44C201.1 21.588 200.26 22.358 199.154 22.358C198.034 22.358 197.208 21.588 197.208 20.44ZM202.5 20.44C202.5 18.592 201.058 17.276 199.154 17.276C197.25 17.276 195.794 18.592 195.794 20.44C195.794 22.274 197.25 23.604 199.154 23.604C201.058 23.604 202.5 22.274 202.5 20.44ZM199.168 27.664V24.696H197.712V28.84H206.336V27.664H199.168Z" fill="#757575"/>
<defs>
<filter id="filter0_d_1012_477" x="0" y="0" width="293" height="48" filterUnits="userSpaceOnUse" color-interpolation-filters="sRGB">
<feFlood flood-opacity="0" result="BackgroundImageFix"/>
<feColorMatrix in="SourceAlpha" type="matrix" values="0 0 0 0 0 0 0 0 0 0 0 0 0 0 0 0 0 0 127 0" result="hardAlpha"/>
<feOffset dy="2"/>
<feGaussianBlur stdDeviation="2"/>
<feComposite in2="hardAlpha" operator="out"/>
<feColorMatrix type="matrix" values="0 0 0 0 0 0 0 0 0 0 0 0 0 0 0 0 0 0 0.06 0"/>
<feBlend mode="normal" in2="BackgroundImageFix" result="effect1_dropShadow_1012_477"/>
<feBlend mode="normal" in="SourceGraphic" in2="effect1_dropShadow_1012_477" result="shape"/>
</filter>
</defs>
</svg>
