<svg width="293" height="48" viewBox="0 0 293 48" fill="none" xmlns="http://www.w3.org/2000/svg">
<g filter="url(#filter0_d_911_2664)">
<rect x="4" y="2" width="285" height="40" rx="4" fill="#FEE500"/>
</g>
<path d="M100.884 16.696V17.872H105.21C105.154 18.572 105.042 19.23 104.874 19.846L100.24 20.14L100.436 21.386L104.44 20.994C103.698 22.548 102.368 23.864 100.156 24.97L100.94 26.09C105.532 23.78 106.638 20.476 106.638 16.696H100.884ZM111.818 20.42H109.9V15.422H108.458V28.064H109.9V21.624H111.818V20.42ZM113.763 16.696V17.872H118.089C118.033 18.572 117.921 19.23 117.753 19.846L113.119 20.14L113.315 21.386L117.319 20.994C116.577 22.548 115.247 23.864 113.035 24.97L113.819 26.09C118.411 23.78 119.517 20.476 119.517 16.696H113.763ZM124.697 20.42H122.779V15.422H121.337V28.064H122.779V21.624H124.697V20.42ZM128.336 19.566C128.336 18.194 129.694 17.326 131.584 17.326C133.46 17.326 134.818 18.194 134.818 19.566C134.818 20.938 133.46 21.806 131.584 21.806C129.694 21.806 128.336 20.938 128.336 19.566ZM132.298 25.348V22.94C134.608 22.73 136.232 21.442 136.232 19.566C136.232 17.508 134.258 16.178 131.584 16.178C128.896 16.178 126.936 17.508 126.936 19.566C126.936 21.442 128.546 22.716 130.856 22.926V25.348H125.872V26.524H137.324V25.348H132.298ZM140.011 25.46H147.291V28.078H148.733V24.312H140.011V25.46ZM145.177 22.212V21.05H148.901V19.944H141.635V18.922H148.509V17.844H141.635V16.864H148.817V15.758H140.193V21.05H143.721V22.212H138.723V23.374H150.175V22.212H145.177ZM155.265 16.402V17.578H159.675C159.423 19.58 157.631 21.218 154.733 22.1L155.335 23.248C159.017 22.128 161.243 19.748 161.243 16.402H155.265ZM158.079 23.668H156.623V27.84H165.135V26.664H158.079V23.668ZM164.631 19.132V15.436H163.189V24.592H164.631V20.322H166.437V19.132H164.631ZM176.683 24.802H178.125V15.436H176.683V17.76H174.821V18.922H176.683V20.224H174.821V21.386H176.683V24.802ZM170.523 17.578H172.133V21.792C171.587 21.82 171.055 21.834 170.523 21.848V17.578ZM174.947 21.568C174.499 21.624 174.009 21.666 173.519 21.694V17.578H174.653V16.402H167.989V17.578H169.137V21.876C168.619 21.876 168.115 21.876 167.653 21.876L167.821 23.066C169.851 23.066 172.651 23.024 175.031 22.632L174.947 21.568ZM171.363 26.664V24.06H169.921V27.84H178.447V26.664H171.363ZM190.103 25.404V23.248H194.051V22.086H186.477V20.322H193.771V16.318H185.035V17.48H192.343V19.174H185.063V23.248H188.661V25.404H183.677V26.594H195.129V25.404H190.103ZM205.082 18.054C205.082 19.692 205.082 21.554 204.592 24.046L206.048 24.2C206.524 21.526 206.524 19.748 206.524 18.054V16.696H197.774V17.858H205.082V18.054ZM196.556 25.124V26.314H207.994V25.124H196.556ZM219.851 15.436H218.409V24.62H219.851V15.436ZM211.087 19.44C211.087 18.278 211.913 17.522 213.033 17.522C214.139 17.522 214.979 18.278 214.979 19.44C214.979 20.588 214.139 21.358 213.033 21.358C211.913 21.358 211.087 20.588 211.087 19.44ZM216.379 19.44C216.379 17.592 214.937 16.276 213.033 16.276C211.129 16.276 209.673 17.592 209.673 19.44C209.673 21.274 211.129 22.604 213.033 22.604C214.937 22.604 216.379 21.274 216.379 19.44ZM213.047 26.664V23.696H211.591V27.84H220.215V26.664H213.047Z" fill="#3C3C3C"/>
<path d="M89 22C89 26.4183 84.7467 30 79.5 30C77.6305 30 75.8872 29.5453 74.4175 28.76L70 30L71.4725 26.28C70.54 25.0423 70 23.5743 70 22C70 17.5817 74.2533 14 79.5 14C84.7467 14 89 17.5817 89 22Z" fill="#3B3B3B"/>
<path d="M74.4175 28.76L74.6531 28.319C74.5393 28.2582 74.4065 28.2438 74.2823 28.2786L74.4175 28.76ZM70 30L69.5351 29.816C69.4652 29.9927 69.5014 30.1937 69.6287 30.3348C69.7559 30.476 69.9522 30.5327 70.1351 30.4814L70 30ZM71.4725 26.28L71.9374 26.4641C72.0015 26.302 71.9767 26.1183 71.8718 25.9792L71.4725 26.28ZM79.5 30.5C84.9389 30.5 89.5 26.7715 89.5 22H88.5C88.5 26.0651 84.5545 29.5 79.5 29.5V30.5ZM74.1818 29.201C75.7253 30.0257 77.5497 30.5 79.5 30.5V29.5C77.7114 29.5 76.0491 29.0649 74.6531 28.319L74.1818 29.201ZM74.2823 28.2786L69.8649 29.5186L70.1351 30.4814L74.5526 29.2414L74.2823 28.2786ZM70.4649 30.184L71.9374 26.4641L71.0076 26.096L69.5351 29.816L70.4649 30.184ZM69.5 22C69.5 23.6924 70.0813 25.2645 71.0731 26.5809L71.8718 25.9792C70.9986 24.8202 70.5 23.4561 70.5 22H69.5ZM79.5 13.5C74.0611 13.5 69.5 17.2285 69.5 22H70.5C70.5 17.9349 74.4455 14.5 79.5 14.5V13.5ZM89.5 22C89.5 17.2285 84.9389 13.5 79.5 13.5V14.5C84.5545 14.5 88.5 17.9349 88.5 22H89.5Z" fill="#3B3B3B"/>
<defs>
<filter id="filter0_d_911_2664" x="0" y="0" width="293" height="48" filterUnits="userSpaceOnUse" color-interpolation-filters="sRGB">
<feFlood flood-opacity="0" result="BackgroundImageFix"/>
<feColorMatrix in="SourceAlpha" type="matrix" values="0 0 0 0 0 0 0 0 0 0 0 0 0 0 0 0 0 0 127 0" result="hardAlpha"/>
<feOffset dy="2"/>
<feGaussianBlur stdDeviation="2"/>
<feComposite in2="hardAlpha" operator="out"/>
<feColorMatrix type="matrix" values="0 0 0 0 0 0 0 0 0 0 0 0 0 0 0 0 0 0 0.06 0"/>
<feBlend mode="normal" in2="BackgroundImageFix" result="effect1_dropShadow_911_2664"/>
<feBlend mode="normal" in="SourceGraphic" in2="effect1_dropShadow_911_2664" result="shape"/>
</filter>
</defs>
</svg>
