<svg width="293" height="48" viewBox="0 0 293 48" fill="none" xmlns="http://www.w3.org/2000/svg">
<g filter="url(#filter0_d_911_2669)">
<rect x="4" y="2" width="285" height="40" rx="4" fill="#03C75A"/>
</g>
<path d="M106.475 17.668V25.144H107.931V17.668H106.475ZM106.475 24.752V25.998H107.329C108.911 25.998 110.325 25.928 111.935 25.606L111.739 24.36C110.185 24.682 108.841 24.752 107.329 24.752H106.475ZM115.449 16.366V29.162H116.863V16.366H115.449ZM110.031 20.552V21.742H113.111V20.552H110.031ZM112.747 16.632V28.546H114.119V16.632H112.747ZM127.656 16.352V29.176H129.126V16.352H127.656ZM122.308 17.304C120.404 17.304 119.018 19.054 119.018 21.812C119.018 24.57 120.404 26.334 122.308 26.334C124.226 26.334 125.612 24.57 125.612 21.812C125.612 19.054 124.226 17.304 122.308 17.304ZM122.308 18.634C123.428 18.634 124.198 19.824 124.198 21.812C124.198 23.814 123.428 25.018 122.308 25.018C121.188 25.018 120.418 23.814 120.418 21.812C120.418 19.824 121.188 18.634 122.308 18.634ZM140.423 16.352V29.176H141.879V16.352H140.423ZM137.259 21V22.19H140.843V21H137.259ZM131.757 17.36V26.054H137.749V17.36H136.307V20.594H133.213V17.36H131.757ZM133.213 21.742H136.307V24.864H133.213V21.742ZM155.368 16.366V25.634H156.852V16.366H155.368ZM156.418 20.104V21.322H158.658V20.104H156.418ZM151.854 17.346V18.032C151.854 20.3 150.006 22.162 146.828 23.1L147.444 24.276C151.182 23.142 153.408 20.72 153.408 17.346H151.854ZM147.36 17.346V18.536H152.624V17.346H147.36ZM148.746 27.72V28.91H157.356V27.72H148.746ZM148.746 24.696V28.224H150.216V24.696H148.746ZM168.667 16.366V25.844H170.137V16.366H168.667ZM159.875 17.346V18.536H166.623V17.346H159.875ZM159.707 24.094C161.751 24.094 164.579 24.052 167.001 23.66L166.917 22.568C164.565 22.848 161.625 22.876 159.553 22.876L159.707 24.094ZM161.037 18.382V23.044H162.451V18.382H161.037ZM164.061 18.382V23.044H165.461V18.382H164.061ZM166.791 18.704V19.894H169.451V18.704H166.791ZM166.791 21.21V22.4H169.451V21.21H166.791ZM161.835 27.72V28.91H170.445V27.72H161.835ZM161.835 25.102V28.546H163.305V25.102H161.835ZM175.142 26.46V27.664H186.734V26.46H175.142ZM180.182 23.856V26.95H181.638V23.856H180.182ZM176.5 17.262V18.438H183.892V20.146H176.528V23.688H177.984V21.308H185.348V17.262H176.5ZM176.528 23.086V24.276H185.642V23.086H176.528ZM189.029 17.64V18.816H197.205V17.64H189.029ZM187.811 26.18V27.384H199.375V26.18H187.811ZM196.421 17.64V19.026C196.421 20.678 196.421 22.554 195.931 25.088L197.401 25.228C197.877 22.526 197.877 20.734 197.877 19.026V17.64H196.421ZM209.552 16.38V25.648H211.022V16.38H209.552ZM202.664 27.72V28.91H211.386V27.72H202.664ZM202.664 24.71V28.168H204.134V24.71H202.664ZM204.12 17.234C202.188 17.234 200.718 18.55 200.718 20.426C200.718 22.274 202.188 23.618 204.12 23.618C206.052 23.618 207.508 22.274 207.508 20.426C207.508 18.55 206.052 17.234 204.12 17.234ZM204.12 18.494C205.24 18.494 206.08 19.25 206.08 20.426C206.08 21.574 205.24 22.33 204.12 22.33C203 22.33 202.146 21.574 202.146 20.426C202.146 19.25 203 18.494 204.12 18.494Z" fill="white"/>
<path d="M89.8562 22.56L83.919 14H79V30H84.157V21.44L90.081 30H95V14H89.8562V22.56Z" fill="white"/>
<defs>
<filter id="filter0_d_911_2669" x="0" y="0" width="293" height="48" filterUnits="userSpaceOnUse" color-interpolation-filters="sRGB">
<feFlood flood-opacity="0" result="BackgroundImageFix"/>
<feColorMatrix in="SourceAlpha" type="matrix" values="0 0 0 0 0 0 0 0 0 0 0 0 0 0 0 0 0 0 127 0" result="hardAlpha"/>
<feOffset dy="2"/>
<feGaussianBlur stdDeviation="2"/>
<feComposite in2="hardAlpha" operator="out"/>
<feColorMatrix type="matrix" values="0 0 0 0 0 0 0 0 0 0 0 0 0 0 0 0 0 0 0.06 0"/>
<feBlend mode="normal" in2="BackgroundImageFix" result="effect1_dropShadow_911_2669"/>
<feBlend mode="normal" in="SourceGraphic" in2="effect1_dropShadow_911_2669" result="shape"/>
</filter>
</defs>
</svg>
